<svg width="260" height="25" viewBox="0 0 260 25" fill="none" xmlns="http://www.w3.org/2000/svg">
<path d="M51.7122 20.8912C51.2015 20.8912 50.8184 20.8126 50.5631 20.6555C50.3077 20.4983 50.1407 20.2822 50.0622 20.0072C50.0032 19.7322 49.9738 19.4277 49.9738 19.0938V2.09207C49.9738 1.77777 50.0032 1.49293 50.0622 1.23756C50.1407 0.962547 50.3077 0.746465 50.5631 0.589316C50.8184 0.412521 51.2211 0.324124 51.7712 0.324124C52.1837 0.324124 52.4882 0.353589 52.6846 0.41252C52.9007 0.451808 53.0677 0.520562 53.1855 0.618781C53.3034 0.697356 53.4212 0.805397 53.5391 0.942903L60.7287 10.9907H60.051L67.2701 0.913438C67.4076 0.756287 67.5452 0.638424 67.6827 0.559849C67.8202 0.481273 67.997 0.422342 68.213 0.383055C68.4291 0.343768 68.714 0.324124 69.0676 0.324124C69.5979 0.324124 69.9908 0.412521 70.2462 0.589316C70.5015 0.746465 70.6587 0.962547 70.7176 1.23756C70.7962 1.51257 70.8355 1.81705 70.8355 2.151V19.1527C70.8355 19.4474 70.7962 19.7322 70.7176 20.0072C70.6587 20.2822 70.5015 20.4983 70.2462 20.6555C69.9908 20.8126 69.5881 20.8912 69.0381 20.8912C68.5077 20.8912 68.1148 20.8028 67.8595 20.626C67.6041 20.4689 67.4371 20.2528 67.3585 19.9778C67.2996 19.7028 67.2701 19.4081 67.2701 19.0938V6.45299L61.9074 14.2025C61.8484 14.2811 61.76 14.3891 61.6422 14.5266C61.5243 14.6445 61.3672 14.7525 61.1707 14.8507C60.9743 14.9489 60.7091 14.9981 60.3752 14.9981C60.0609 14.9981 59.8055 14.9489 59.609 14.8507C59.4126 14.7525 59.2555 14.6445 59.1376 14.5266C59.0394 14.4087 58.9412 14.2909 58.8429 14.173L53.5096 6.45299V19.1527C53.5096 19.4474 53.4704 19.7322 53.3918 20.0072C53.3328 20.2822 53.1757 20.4983 52.9203 20.6555C52.665 20.8126 52.2623 20.8912 51.7122 20.8912Z" fill="#212121"/>
<path d="M78.329 20.8912C77.779 20.8912 77.3763 20.8126 77.1209 20.6555C76.8655 20.4983 76.7084 20.2822 76.6494 20.0072C76.5905 19.7126 76.5611 19.4081 76.5611 19.0938V2.09207C76.5611 1.77777 76.5905 1.49293 76.6494 1.23756C76.728 0.962547 76.895 0.746465 77.1504 0.589316C77.4057 0.412521 77.8084 0.324124 78.3585 0.324124H84.6052C85.4695 0.324124 86.3142 0.471453 87.1392 0.76611C87.9643 1.06077 88.7009 1.50275 89.3492 2.09207C90.0171 2.68138 90.5376 3.4082 90.9109 4.27253C91.3037 5.13686 91.5002 6.14852 91.5002 7.3075C91.5002 8.44684 91.3037 9.44868 90.9109 10.313C90.5376 11.1577 90.0171 11.8747 89.3492 12.464C88.6813 13.0533 87.9348 13.4953 87.1098 13.79C86.3044 14.0846 85.4597 14.2319 84.5757 14.2319H80.1264V19.1233C80.1264 19.4376 80.0871 19.7322 80.0085 20.0072C79.9496 20.2822 79.7925 20.4983 79.5371 20.6555C79.3014 20.8126 78.8987 20.8912 78.329 20.8912ZM80.1264 10.6371H84.6052C85.2142 10.6371 85.7642 10.5193 86.2553 10.2835C86.766 10.0282 87.1785 9.65494 87.4928 9.16384C87.8071 8.6531 87.9643 8.01468 87.9643 7.24857C87.9643 6.56104 87.817 5.97172 87.5223 5.48063C87.2473 4.96989 86.8544 4.57701 86.3437 4.302C85.8526 4.02698 85.2633 3.88948 84.5757 3.88948H80.1264V10.6371Z" fill="#212121"/>
<path d="M112.616 18.4161C112.812 18.7893 112.911 19.1233 112.911 19.4179C112.93 19.6929 112.852 19.9385 112.675 20.1546C112.498 20.351 112.204 20.5573 111.791 20.7733C111.162 21.068 110.671 21.1466 110.318 21.0091C109.984 20.8716 109.669 20.4885 109.375 19.8599L102.804 5.98154L96.2626 19.8599C95.9679 20.4689 95.6438 20.8323 95.2902 20.9501C94.9366 21.0876 94.4455 21.0189 93.8169 20.7439C93.424 20.5474 93.1294 20.3412 92.9329 20.1251C92.7562 19.909 92.6776 19.6536 92.6972 19.359C92.7365 19.0447 92.8642 18.6714 93.0803 18.2393L101.183 1.35542C101.341 1.04112 101.566 0.795575 101.861 0.618781C102.175 0.422343 102.499 0.324124 102.833 0.324124C103.069 0.324124 103.285 0.363411 103.482 0.441985C103.678 0.520561 103.855 0.638424 104.012 0.795575C104.189 0.952726 104.336 1.14916 104.454 1.38489L112.616 18.4161ZM97.5591 15.5579L98.9734 12.5229H106.664L108.078 15.5579H97.5591Z" fill="#212121"/>
<path d="M123.549 21.1859C122.665 21.1859 121.86 21.0778 121.133 20.8617C120.426 20.6457 119.797 20.3706 119.247 20.0367C118.717 19.7027 118.265 19.359 117.892 19.0054C117.519 18.6518 117.244 18.3277 117.067 18.033C116.812 17.6794 116.645 17.3651 116.566 17.0901C116.487 16.8151 116.507 16.5499 116.625 16.2945C116.763 16.0195 117.008 15.7347 117.362 15.44C117.715 15.1257 118.039 14.9686 118.334 14.9686C118.648 14.9489 118.943 15.0373 119.218 15.2338C119.513 15.4302 119.797 15.7052 120.072 16.0588C120.544 16.6874 121.074 17.1392 121.664 17.4142C122.253 17.6696 122.842 17.7973 123.432 17.7973C124.198 17.7973 124.866 17.6991 125.435 17.5026C126.005 17.2866 126.447 16.9723 126.761 16.5597C127.095 16.1472 127.262 15.6168 127.262 14.9686C127.262 14.4382 127.095 14.006 126.761 13.6721C126.447 13.3185 126.025 13.0239 125.494 12.7881C124.964 12.5328 124.365 12.3069 123.697 12.1104C123.049 11.8943 122.39 11.6586 121.723 11.4032C121.251 11.2461 120.78 11.0595 120.308 10.8434C119.837 10.6077 119.395 10.3425 118.982 10.0478C118.589 9.75316 118.236 9.40939 117.921 9.01651C117.627 8.60399 117.391 8.13254 117.214 7.60216C117.038 7.07177 116.949 6.45299 116.949 5.74582C116.949 4.62612 117.224 3.64393 117.774 2.79924C118.324 1.93492 119.09 1.2572 120.072 0.76611C121.055 0.25537 122.174 0 123.432 0C124.237 0 124.954 0.0785754 125.583 0.235726C126.231 0.373232 126.781 0.559849 127.233 0.795575C127.704 1.01166 128.087 1.23756 128.382 1.47329C128.696 1.68937 128.922 1.87598 129.06 2.03314C129.511 2.48494 129.757 2.868 129.796 3.1823C129.855 3.47696 129.678 3.87965 129.266 4.39039C128.853 4.92078 128.451 5.21543 128.058 5.27436C127.684 5.31365 127.262 5.1565 126.791 4.80291C126.476 4.46897 126.162 4.20378 125.848 4.00734C125.533 3.79126 125.18 3.63411 124.787 3.53589C124.414 3.43767 123.952 3.38856 123.402 3.38856C123.009 3.38856 122.626 3.44749 122.253 3.56535C121.899 3.66357 121.595 3.82072 121.34 4.03681C121.084 4.23324 120.878 4.47879 120.721 4.77345C120.583 5.06811 120.514 5.40205 120.514 5.77528C120.514 6.28602 120.652 6.70836 120.927 7.04231C121.222 7.35661 121.615 7.6218 122.106 7.83788C122.597 8.03432 123.147 8.22094 123.756 8.39773C124.365 8.57453 124.983 8.76114 125.612 8.95758C126.26 9.17366 126.899 9.42903 127.527 9.72369C128.156 10.0183 128.716 10.3916 129.207 10.8434C129.698 11.2756 130.091 11.8256 130.385 12.4935C130.68 13.1417 130.827 13.9373 130.827 14.8802C130.827 15.9606 130.621 16.9035 130.209 17.7089C129.796 18.5143 129.236 19.1724 128.529 19.6831C127.822 20.1938 127.036 20.5671 126.172 20.8028C125.308 21.0582 124.433 21.1859 123.549 21.1859Z" fill="#212121"/>
<path d="M142.107 21.1859C141.223 21.1859 140.418 21.0778 139.691 20.8617C138.984 20.6457 138.355 20.3706 137.805 20.0367C137.275 19.7027 136.823 19.359 136.45 19.0054C136.076 18.6518 135.801 18.3277 135.625 18.033C135.369 17.6794 135.202 17.3651 135.124 17.0901C135.045 16.8151 135.065 16.5499 135.183 16.2945C135.32 16.0195 135.566 15.7347 135.919 15.44C136.273 15.1257 136.597 14.9686 136.892 14.9686C137.206 14.9489 137.501 15.0373 137.776 15.2338C138.07 15.4302 138.355 15.7052 138.63 16.0588C139.102 16.6874 139.632 17.1392 140.221 17.4142C140.811 17.6696 141.4 17.7973 141.989 17.7973C142.755 17.7973 143.423 17.6991 143.993 17.5026C144.563 17.2866 145.005 16.9723 145.319 16.5597C145.653 16.1472 145.82 15.6168 145.82 14.9686C145.82 14.4382 145.653 14.006 145.319 13.6721C145.005 13.3185 144.582 13.0239 144.052 12.7881C143.521 12.5328 142.922 12.3069 142.254 12.1104C141.606 11.8943 140.948 11.6586 140.28 11.4032C139.809 11.2461 139.337 11.0595 138.866 10.8434C138.394 10.6077 137.952 10.3425 137.54 10.0478C137.147 9.75316 136.793 9.40939 136.479 9.01651C136.184 8.60399 135.949 8.13254 135.772 7.60216C135.595 7.07177 135.507 6.45299 135.507 5.74582C135.507 4.62612 135.782 3.64393 136.332 2.79924C136.882 1.93492 137.648 1.2572 138.63 0.76611C139.612 0.25537 140.732 0 141.989 0C142.795 0 143.512 0.0785754 144.14 0.235726C144.788 0.373232 145.339 0.559849 145.79 0.795575C146.262 1.01166 146.645 1.23756 146.939 1.47329C147.254 1.68937 147.48 1.87598 147.617 2.03314C148.069 2.48494 148.315 2.868 148.354 3.1823C148.413 3.47696 148.236 3.87965 147.823 4.39039C147.411 4.92078 147.008 5.21543 146.615 5.27436C146.242 5.31365 145.82 5.1565 145.348 4.80291C145.034 4.46897 144.72 4.20378 144.405 4.00734C144.091 3.79126 143.738 3.63411 143.345 3.53589C142.971 3.43767 142.51 3.38856 141.96 3.38856C141.567 3.38856 141.184 3.44749 140.811 3.56535C140.457 3.66357 140.153 3.82072 139.897 4.03681C139.642 4.23324 139.436 4.47879 139.278 4.77345C139.141 5.06811 139.072 5.40205 139.072 5.77528C139.072 6.28602 139.21 6.70836 139.485 7.04231C139.779 7.35661 140.172 7.6218 140.663 7.83788C141.154 8.03432 141.704 8.22094 142.313 8.39773C142.922 8.57453 143.541 8.76114 144.17 8.95758C144.818 9.17366 145.456 9.42903 146.085 9.72369C146.714 10.0183 147.273 10.3916 147.765 10.8434C148.256 11.2756 148.648 11.8256 148.943 12.4935C149.238 13.1417 149.385 13.9373 149.385 14.8802C149.385 15.9606 149.179 16.9035 148.766 17.7089C148.354 18.5143 147.794 19.1724 147.087 19.6831C146.38 20.1938 145.594 20.5671 144.73 20.8028C143.865 21.0582 142.991 21.1859 142.107 21.1859Z" fill="#212121"/>
<path d="M155.98 20.9207C155.43 20.9207 155.027 20.8323 154.772 20.6555C154.516 20.4983 154.359 20.2822 154.3 20.0072C154.241 19.7322 154.212 19.4277 154.212 19.0938V2.09207C154.212 1.77777 154.241 1.48311 154.3 1.20809C154.379 0.933082 154.536 0.716999 154.772 0.559849C155.027 0.402699 155.439 0.324124 156.009 0.324124C156.559 0.324124 156.952 0.402699 157.188 0.559849C157.443 0.716999 157.6 0.933082 157.659 1.20809C157.738 1.48311 157.777 1.78759 157.777 2.12153V19.1233C157.777 19.4572 157.738 19.7617 157.659 20.0367C157.6 20.2921 157.443 20.4983 157.188 20.6555C156.932 20.8323 156.53 20.9207 155.98 20.9207Z" fill="#212121"/>
<path d="M169.612 21.1859C168.728 21.1859 167.922 21.0778 167.195 20.8617C166.488 20.6457 165.86 20.3706 165.31 20.0367C164.779 19.7027 164.327 19.359 163.954 19.0054C163.581 18.6518 163.306 18.3277 163.129 18.033C162.874 17.6794 162.707 17.3651 162.628 17.0901C162.55 16.8151 162.569 16.5499 162.687 16.2945C162.825 16.0195 163.07 15.7347 163.424 15.44C163.777 15.1257 164.101 14.9686 164.396 14.9686C164.71 14.9489 165.005 15.0373 165.28 15.2338C165.575 15.4302 165.86 15.7052 166.135 16.0588C166.606 16.6874 167.136 17.1392 167.726 17.4142C168.315 17.6696 168.904 17.7973 169.494 17.7973C170.26 17.7973 170.928 17.6991 171.497 17.5026C172.067 17.2866 172.509 16.9723 172.823 16.5597C173.157 16.1472 173.324 15.6168 173.324 14.9686C173.324 14.4382 173.157 14.006 172.823 13.6721C172.509 13.3185 172.087 13.0239 171.556 12.7881C171.026 12.5328 170.427 12.3069 169.759 12.1104C169.111 11.8943 168.453 11.6586 167.785 11.4032C167.313 11.2461 166.842 11.0595 166.37 10.8434C165.899 10.6077 165.457 10.3425 165.044 10.0478C164.651 9.75316 164.298 9.40939 163.984 9.01651C163.689 8.60399 163.453 8.13254 163.276 7.60216C163.1 7.07177 163.011 6.45299 163.011 5.74582C163.011 4.62612 163.286 3.64393 163.836 2.79924C164.386 1.93492 165.152 1.2572 166.135 0.76611C167.117 0.25537 168.236 0 169.494 0C170.299 0 171.016 0.0785754 171.645 0.235726C172.293 0.373232 172.843 0.559849 173.295 0.795575C173.766 1.01166 174.149 1.23756 174.444 1.47329C174.758 1.68937 174.984 1.87598 175.122 2.03314C175.573 2.48494 175.819 2.868 175.858 3.1823C175.917 3.47696 175.74 3.87965 175.328 4.39039C174.915 4.92078 174.513 5.21543 174.12 5.27436C173.747 5.31365 173.324 5.1565 172.853 4.80291C172.538 4.46897 172.224 4.20378 171.91 4.00734C171.596 3.79126 171.242 3.63411 170.849 3.53589C170.476 3.43767 170.014 3.38856 169.464 3.38856C169.071 3.38856 168.688 3.44749 168.315 3.56535C167.961 3.66357 167.657 3.82072 167.402 4.03681C167.146 4.23324 166.94 4.47879 166.783 4.77345C166.645 5.06811 166.577 5.40205 166.577 5.77528C166.577 6.28602 166.714 6.70836 166.989 7.04231C167.284 7.35661 167.677 7.6218 168.168 7.83788C168.659 8.03432 169.209 8.22094 169.818 8.39773C170.427 8.57453 171.046 8.76114 171.674 8.95758C172.322 9.17366 172.961 9.42903 173.589 9.72369C174.218 10.0183 174.778 10.3916 175.269 10.8434C175.76 11.2756 176.153 11.8256 176.448 12.4935C176.742 13.1417 176.89 13.9373 176.89 14.8802C176.89 15.9606 176.683 16.9035 176.271 17.7089C175.858 18.5143 175.298 19.1724 174.591 19.6831C173.884 20.1938 173.098 20.5671 172.234 20.8028C171.37 21.0582 170.495 21.1859 169.612 21.1859Z" fill="#212121"/>
<path d="M195.63 0.294657C195.924 0.294657 196.18 0.324123 196.396 0.383055C196.632 0.441987 196.818 0.589315 196.956 0.82504C197.093 1.04112 197.162 1.39471 197.162 1.88581C197.162 2.3769 197.093 2.74031 196.956 2.97604C196.818 3.19212 196.632 3.32963 196.396 3.38856C196.16 3.42785 195.895 3.44749 195.6 3.44749H190.179V19.1527C190.179 19.4867 190.139 19.7911 190.061 20.0662C190.002 20.3215 189.845 20.5278 189.589 20.6849C189.354 20.8421 188.951 20.9207 188.381 20.9207C187.851 20.9207 187.458 20.8323 187.203 20.6555C186.947 20.4983 186.79 20.2921 186.731 20.0367C186.672 19.7617 186.643 19.4572 186.643 19.1233V3.44749H181.162C180.887 3.44749 180.632 3.41803 180.396 3.35909C180.16 3.30016 179.964 3.16265 179.807 2.94657C179.669 2.73049 179.6 2.3769 179.6 1.88581C179.6 1.39471 179.669 1.04112 179.807 0.82504C179.944 0.589315 180.131 0.441987 180.367 0.383055C180.622 0.324123 180.887 0.294657 181.162 0.294657H195.63Z" fill="#212121"/>
<path d="M215.761 18.4161C215.958 18.7893 216.056 19.1233 216.056 19.4179C216.075 19.6929 215.997 19.9385 215.82 20.1546C215.643 20.351 215.349 20.5573 214.936 20.7733C214.307 21.068 213.816 21.1466 213.463 21.0091C213.129 20.8716 212.814 20.4885 212.52 19.8599L205.949 5.98154L199.408 19.8599C199.113 20.4689 198.789 20.8323 198.435 20.9501C198.082 21.0876 197.591 21.0189 196.962 20.7439C196.569 20.5474 196.274 20.3412 196.078 20.1251C195.901 19.909 195.823 19.6536 195.842 19.359C195.882 19.0447 196.009 18.6714 196.225 18.2393L204.328 1.35542C204.486 1.04112 204.711 0.795575 205.006 0.618781C205.32 0.422343 205.645 0.324124 205.978 0.324124C206.214 0.324124 206.43 0.363411 206.627 0.441985C206.823 0.520561 207 0.638424 207.157 0.795575C207.334 0.952726 207.481 1.14916 207.599 1.38489L215.761 18.4161ZM200.704 15.5579L202.118 12.5229H209.809L211.223 15.5579H200.704Z" fill="#212121"/>
<path d="M222.009 20.8912C221.479 20.8912 221.086 20.8028 220.831 20.626C220.595 20.4689 220.438 20.2528 220.359 19.9778C220.3 19.7028 220.271 19.4081 220.271 19.0938V2.00367C220.271 1.70901 220.31 1.434 220.389 1.17863C220.467 0.92326 220.634 0.716999 220.89 0.559849C221.165 0.402699 221.567 0.324124 222.098 0.324124C222.687 0.324124 223.09 0.392877 223.306 0.530383C223.542 0.648246 223.758 0.82504 223.954 1.06077L233.796 14.8213V2.00367C233.796 1.70901 233.835 1.434 233.914 1.17863C233.992 0.92326 234.159 0.716999 234.414 0.559849C234.67 0.402699 235.063 0.324124 235.593 0.324124C236.143 0.324124 236.536 0.412521 236.772 0.589316C237.027 0.746465 237.184 0.962547 237.243 1.23756C237.322 1.51257 237.361 1.81705 237.361 2.151V19.1233C237.361 19.4376 237.312 19.7322 237.214 20.0072C237.135 20.2626 236.958 20.4689 236.683 20.626C236.428 20.8028 236.025 20.8912 235.475 20.8912C235.043 20.8912 234.699 20.8519 234.444 20.7733C234.208 20.6948 233.992 20.5278 233.796 20.2724L223.807 6.54139V19.1233C223.807 19.4376 223.768 19.7322 223.689 20.0072C223.63 20.2626 223.473 20.4689 223.218 20.626C222.962 20.8028 222.559 20.8912 222.009 20.8912Z" fill="#212121"/>
<path d="M258.468 0.294657C258.762 0.294657 259.018 0.324123 259.234 0.383055C259.47 0.441987 259.656 0.589315 259.794 0.82504C259.931 1.04112 260 1.39471 260 1.88581C260 2.3769 259.931 2.74031 259.794 2.97604C259.656 3.19212 259.47 3.32963 259.234 3.38856C258.998 3.42785 258.733 3.44749 258.438 3.44749H253.017V19.1527C253.017 19.4867 252.977 19.7911 252.899 20.0662C252.84 20.3215 252.683 20.5278 252.427 20.6849C252.192 20.8421 251.789 20.9207 251.219 20.9207C250.689 20.9207 250.296 20.8323 250.041 20.6555C249.785 20.4983 249.628 20.2921 249.569 20.0367C249.51 19.7617 249.481 19.4572 249.481 19.1233V3.44749H244C243.725 3.44749 243.47 3.41803 243.234 3.35909C242.998 3.30016 242.802 3.16265 242.645 2.94657C242.507 2.73049 242.438 2.3769 242.438 1.88581C242.438 1.39471 242.507 1.04112 242.645 0.82504C242.782 0.589315 242.969 0.441987 243.204 0.383055C243.46 0.324123 243.725 0.294657 244 0.294657H258.468Z" fill="#212121"/>
<path d="M36.9447 15.2533C35.5934 16.3067 33.8799 16.8434 32.1368 16.7596C30.7681 16.5594 29.4637 16.0702 28.3184 15.328C27.8849 15.7938 27.4212 16.2335 26.9299 16.6439C27.2856 16.8508 27.6501 17.0496 28.0148 17.2399V17.2395C29.5175 18.114 31.2442 18.5751 33.0046 18.5721C34.7783 18.4491 36.4755 17.8366 37.8904 16.8095C38.8709 16.1474 37.9338 14.5831 36.9447 15.2533Z" fill="#11AE88"/>
<path d="M24.1441 12.286C23.676 12.7736 23.1545 13.2077 22.5895 13.5801C21.5356 12.7931 20.508 11.9975 19.4803 11.2015C16.9596 9.24245 14.1405 7.08285 10.7941 7.01259L10.7944 7.01298C9.32016 6.92358 7.86445 7.37449 6.70152 8.28102C6.50195 8.452 6.31689 8.639 6.14829 8.84045C5.79306 9.25543 5.49743 9.71765 5.27003 10.2134C4.9889 10.8583 4.77129 11.529 4.62034 12.2161C4.5678 12.4347 4.52389 12.6448 4.47998 12.8544C4.40392 13.2393 4.32785 13.6239 4.25179 14.0088C3.60171 17.367 3.11868 20.7774 2.54775 24.1527C2.34583 25.3594 0.510073 24.8437 0.712024 23.6456L1.8891 16.6498C2.12631 15.2768 2.30197 13.8601 2.59171 12.4785C2.71483 11.8839 2.86382 11.2894 3.04849 10.7296L3.16259 10.3884H3.1622C3.34256 9.85391 3.57506 9.33859 3.85619 8.84949C4.12163 8.38297 4.43647 7.94612 4.79601 7.54637C6.05771 6.15311 7.80922 5.29543 9.68761 5.15052C12.9109 4.83587 15.9056 6.28733 18.4703 8.09754C20.4025 9.46152 22.2469 10.913 24.1441 12.286Z" fill="#11AE88"/>
<path d="M1.61491 6.54274C0.741142 5.70226 -0.569511 6.97987 0.269107 7.83727C0.810923 8.38358 1.36137 8.93815 1.91169 9.51823H1.91208C2.14379 8.91489 2.43634 8.33522 2.78585 7.78665L1.61491 6.54274Z" fill="#2A84EE"/>
<path d="M33.8037 1.44841C32.4807 4.83156 30.9546 8.13246 29.2343 11.3333C28.858 11.9924 28.4457 12.63 27.9997 13.2442C27.6859 13.6715 27.3498 14.082 26.9931 14.4742C26.5495 14.9657 26.0696 15.4238 25.5576 15.844C25.116 16.1743 24.6509 16.4719 24.1655 16.734L23.6665 17.0133C21.0665 18.2846 18.1155 18.6558 15.2801 18.0688C11.8484 17.3432 8.66334 15.744 6.03601 13.4272L6.07978 13.2091C6.19976 12.5906 6.3635 11.9815 6.56985 11.3859C10.3693 14.6576 14.8073 17.1963 19.9641 16.2892C20.8141 16.1432 21.6391 15.8791 22.4153 15.504C22.9335 15.2575 23.4287 14.9657 23.8949 14.6316C24.4373 14.2374 24.9438 13.7965 25.4093 13.3139C25.7763 12.9326 26.1213 12.5306 26.4422 12.11C26.8681 11.5526 27.2601 10.9699 27.6154 10.3651C29.3318 7.16967 30.8548 3.87456 32.1761 0.497688C32.649 -0.619361 34.2947 0.340336 33.8042 1.44844L33.8037 1.44841Z" fill="#2A84EE"/>
</svg>
