<svg xmlns="http://www.w3.org/2000/svg" width="141" height="64" viewBox="0 0 141 64" fill="none">
<g clip-path="url(#clip0_3029_8687)">
<path fill-rule="evenodd" clip-rule="evenodd" d="M28.1939 2.3999L0 13.2692V14.3124H4.16187L14.4074 18.2622L32.1626 11.417V2.3999H28.1939Z" fill="#3B99E1"/>
<path fill-rule="evenodd" clip-rule="evenodd" d="M17.7555 32.291L0 39.136V40.1791H4.16187L14.4074 44.1287L32.1626 37.2837V36.4686H28.5919L17.7555 32.291Z" fill="#3B9DCC"/>
<path fill-rule="evenodd" clip-rule="evenodd" d="M3.96868 41.2003L32.1626 52.0696V61.3147H28.7851L0 50.2176V41.2003H3.96868ZM3.96868 15.3335L32.1626 26.2026V35.448H28.7851L0 24.3506V15.3335H3.96868Z" fill="#308BCE"/>
<path d="M46.1147 34.5906H62.2887C65.6235 34.5906 67.7913 32.4415 67.7913 29.1351V26.6554C67.7913 23.8449 65.9569 22.0595 62.6222 21.5303L53.2845 20.0424C51.9504 19.8109 51.4504 19.3812 51.4504 18.224V17.8933C51.4504 16.5707 51.9504 16.0749 53.2845 16.0749H65.4569L67.1241 14.4216V11.4458H51.617C48.2823 11.4458 46.1147 13.5949 46.1147 16.9012V19.3812C46.1147 22.1915 47.9488 23.9769 51.2835 24.5061L60.6212 25.9939C61.9553 26.2255 62.4556 26.6554 62.4556 27.8124V28.1434C62.4556 29.4657 61.9553 29.9618 60.6212 29.9618H46.1147V34.5906ZM98.4718 34.5906H103.807V26.3245H113.084V21.6958H103.807V16.0749H115.085L116.753 14.4216V11.4458H98.4718V34.5906ZM126.924 34.5906H132.26V16.0749H139.263L140.93 14.4216V11.4458H118.253V16.0749H126.924V34.5906ZM71.626 29.1351C71.626 32.4415 73.7939 34.5906 77.1286 34.5906H89.1341C92.4692 34.5906 94.6367 32.4415 94.6367 29.1351V16.9016C94.6367 13.5949 92.4689 11.4458 89.1341 11.4458H77.1286C73.7939 11.4458 71.626 13.5952 71.626 16.9016V29.1351ZM79.1296 29.9618C77.6955 29.9618 76.9617 29.2341 76.9617 27.8124V18.224C76.9617 16.8022 77.6955 16.0749 79.1296 16.0749H87.1335C88.5673 16.0749 89.301 16.8022 89.301 18.224V27.8124C89.301 29.2341 88.5673 29.9618 87.1335 29.9618H79.1296Z" fill="#308BCE"/>
<path d="M46.1147 49.2161C46.1147 50.9521 47.2499 52.0776 49.0009 52.0776H55.5423V48.9297H50.3476C49.8282 48.9297 49.5782 48.6822 49.5782 48.1669V42.6349C49.5782 42.1196 49.8282 41.8717 50.3476 41.8717H54.4845L55.5423 40.8225V38.7241H49.0009C47.2499 38.7241 46.1147 39.8496 46.1147 41.5857V49.2161ZM58.9677 52.0776H68.1068V48.9297H62.4308V38.7241H58.9677V52.0776ZM70.8581 49.4072C70.8581 51.1429 71.9933 52.2684 73.7443 52.2684H78.5545C80.3054 52.2684 81.4406 51.1429 81.4406 49.4072V38.7241H77.9771V48.3577C77.9771 48.8726 77.7272 49.1209 77.2078 49.1209H75.091C74.5716 49.1209 74.3216 48.8726 74.3216 48.3577V38.7241H70.8581V49.4072ZM84.5354 52.0776H91.7505C93.3861 52.0776 94.6367 50.9329 94.6367 49.2161V47.8809C94.6367 46.6409 94.0796 45.9718 93.521 45.6106C93.1944 45.3995 92.8278 45.2675 92.4239 45.2101V45.0193C92.7508 44.9619 93.0523 44.8392 93.3282 44.6377C93.7839 44.305 94.2518 43.6837 94.2518 42.5393V41.5857C94.2518 39.8496 93.1167 38.7241 91.366 38.7241H84.5354V52.0776ZM87.9989 49.2161V46.7361H90.4038C90.9232 46.7361 91.1732 46.9843 91.1732 47.4989V48.4529C91.1732 48.9682 90.9232 49.2161 90.4038 49.2161H87.9989ZM87.9989 43.8749V41.5857H90.0186C90.5384 41.5857 90.7887 41.8335 90.7887 42.3485V43.1117C90.7887 43.6267 90.5384 43.8749 90.0186 43.8749H87.9989Z" fill="#3B9DCC"/>
<path fill-rule="evenodd" clip-rule="evenodd" d="M98.4717 38.7241H103.807V44.0143H98.4717V38.7241Z" fill="#308BCE"/>
</g>
<defs>
<clipPath id="clip0_3029_8687">
<rect width="141" height="59.2" fill="white" transform="translate(0 2.3999)"/>
</clipPath>
</defs>
</svg>