<svg width="62" height="25" viewBox="0 0 62 25" fill="none" xmlns="http://www.w3.org/2000/svg">
<path d="M17.8511 11.3061H14.6891V2.63427H11.4873V11.3061H8.33325V0.175111H17.8511V11.3061Z" fill="#4D8F76"/>
<path d="M31.2301 5.72536C31.2301 7.59828 30.7507 9.02201 29.7921 9.99654C28.8334 10.9711 27.4298 11.4583 25.5813 11.4583C23.7593 11.4583 22.3611 10.9685 21.3865 9.98893C20.4172 9.00932 19.9326 7.58306 19.9326 5.71013C19.9326 3.85751 20.4146 2.44394 21.3786 1.46941C22.3478 0.489803 23.754 0 25.5972 0C27.4457 0 28.8466 0.484727 29.8 1.45418C30.7534 2.42363 31.2301 3.84736 31.2301 5.72536ZM23.2376 5.72536C23.2376 7.87745 24.0189 8.95349 25.5813 8.95349C26.3758 8.95349 26.9637 8.69209 27.3451 8.1693C27.7317 7.6465 27.925 6.83186 27.925 5.72536C27.925 4.61379 27.7291 3.79407 27.3371 3.2662C26.9505 2.73325 26.3705 2.46678 25.5972 2.46678C24.0242 2.46678 23.2376 3.55297 23.2376 5.72536Z" fill="#4D8F76"/>
<path d="M41.7569 3.71539C41.7569 4.95893 41.3729 5.92077 40.6049 6.60091C39.8422 7.27598 38.7564 7.61351 37.3475 7.61351H36.4657V11.3061H33.3275V0.175111H37.3475C38.8147 0.175111 39.9163 0.482189 40.6525 1.09635C41.3888 1.7105 41.7569 2.58352 41.7569 3.71539ZM36.4657 5.16196H37.0377C37.5091 5.16196 37.8825 5.03507 38.1579 4.78128C38.4386 4.5275 38.579 4.17728 38.579 3.73062C38.579 2.97942 38.1446 2.60382 37.276 2.60382H36.4657V5.16196Z" fill="#4D8F76"/>
<path d="M50.7344 11.3061L50.1624 9.21996H46.3887L45.8007 11.3061H42.3527L46.1424 0.12943H50.3293L54.1666 11.3061H50.7344ZM49.511 6.75318L49.0104 4.92594C48.8939 4.51989 48.7509 3.99455 48.5814 3.34994C48.4172 2.70533 48.3086 2.24345 48.2557 1.96429C48.208 2.22315 48.1127 2.6495 47.9697 3.24336C47.832 3.83721 47.5221 5.00715 47.0401 6.75318H49.511Z" fill="#4D8F76"/>
<path d="M9.37447 24.8339H6.26008V15.3738H3.10656V24.8339H0V12.691H9.37447V24.8339Z" fill="#4D8F76"/>
<path d="M22.5519 18.7458C22.5519 20.789 22.0798 22.3422 21.1356 23.4053C20.1914 24.4684 18.8089 25 16.9883 25C15.1937 25 13.8165 24.4657 12.8566 23.397C11.902 22.3284 11.4246 20.7724 11.4246 18.7292C11.4246 16.7082 11.8994 15.1661 12.8488 14.103C13.8035 13.0343 15.1885 12.5 17.0039 12.5C18.8246 12.5 20.2044 13.0288 21.1434 14.0864C22.0824 15.144 22.5519 16.6971 22.5519 18.7458ZM14.6799 18.7458C14.6799 21.0936 15.4494 22.2674 16.9883 22.2674C17.7708 22.2674 18.3499 21.9823 18.7255 21.412C19.1063 20.8416 19.2967 19.9529 19.2967 18.7458C19.2967 17.5332 19.1037 16.639 18.7176 16.0631C18.3368 15.4817 17.7656 15.191 17.0039 15.191C15.4546 15.191 14.6799 16.376 14.6799 18.7458Z" fill="#4D8F76"/>
<path d="M31.41 24.8339H24.6178V12.691H31.41V15.3239H27.7087V17.2342H31.1361V19.8671H27.7087V22.1595H31.41V24.8339Z" fill="#4D8F76"/>
<path d="M38.5073 15.2076C37.7718 15.2076 37.1979 15.5288 36.7858 16.1711C36.3737 16.8079 36.1676 17.6883 36.1676 18.8123C36.1676 21.1489 37.0049 22.3173 38.6795 22.3173C39.1855 22.3173 39.6759 22.2425 40.1506 22.093C40.6253 21.9435 41.1026 21.7636 41.5826 21.5532V24.3272C40.6279 24.7757 39.5481 25 38.343 25C36.6162 25 35.2912 24.4684 34.3678 23.4053C33.4497 22.3422 32.9906 20.8056 32.9906 18.7957C32.9906 17.5388 33.2123 16.4341 33.6558 15.4817C34.1044 14.5293 34.7461 13.7984 35.5807 13.289C36.4206 12.7741 37.4066 12.5166 38.5386 12.5166C39.775 12.5166 40.9566 12.8018 42.0834 13.3721L41.1365 15.9551C40.714 15.7447 40.2914 15.5676 39.8689 15.4236C39.4463 15.2796 38.9925 15.2076 38.5073 15.2076Z" fill="#4D8F76"/>
<path d="M48.8677 24.8339H45.7768V15.3738H42.9833V12.691H51.6535V15.3738H48.8677V24.8339Z" fill="#4D8F76"/>
<path d="M61.4583 20.8056C61.4583 22.1013 61.041 23.098 60.2063 23.7957C59.3769 24.4878 58.1979 24.8339 56.6694 24.8339H53.2889V12.691H56.3955V17.01H56.552C58.1483 17.01 59.3638 17.3311 60.1985 17.9734C61.0384 18.6102 61.4583 19.5543 61.4583 20.8056ZM56.3955 22.3173H56.5363C57.7466 22.3173 58.3518 21.8411 58.3518 20.8887C58.3518 19.9806 57.7414 19.5266 56.5207 19.5266H56.3955V22.3173Z" fill="#4D8F76"/>
</svg>
